<?xml version="1.0" encoding="UTF-8"?>
<svg width="24px" height="24px" viewBox="0 0 24 24" version="1.1" xmlns="http://www.w3.org/2000/svg">
    <g stroke="none" stroke-width="1" fill="none" fill-rule="evenodd">
        <path d="M24,12 C24,5.37258267 18.6274173,0 12,0 C5.37258267,0 0,5.37258267 0,12 C0,17.9895035 4.38825461,22.954403 10.125,23.8542068 L10.125,15.46875 L7.078125,15.46875 L7.078125,12 L10.125,12 L10.125,9.35625 C10.125,6.34875 11.9166667,4.6875 14.6575521,4.6875 C15.9705729,4.6875 17.34375,4.921875 17.34375,4.921875 L17.34375,7.875 L15.8306302,7.875 C14.34,7.875 13.875,8.80001652 13.875,9.75V12 L17.203125,12 L16.6710937,15.46875 L13.875,15.46875 L13.875,23.8542068 C19.6117454,22.954403 24,17.9895035 24,12" fill="#000000" fill-rule="nonzero"></path>
    </g>
</svg>
